<svg xmlns="http://www.w3.org/2000/svg" viewBox="0 0 1400 1120" font-family="'Segoe UI', 'Helvetica Neue', Arial, sans-serif">
  <defs>
    <filter id="shadow" x="-4%" y="-4%" width="108%" height="112%">
      <feDropShadow dx="2" dy="3" stdDeviation="3" flood-opacity="0.15"/>
    </filter>
    <marker id="arrow" viewBox="0 0 10 6" refX="10" refY="3" markerWidth="10" markerHeight="6" orient="auto-start-reverse">
      <path d="M0,0 L10,3 L0,6 Z" fill="#64748b"/>
    </marker>
    <marker id="arrow-green" viewBox="0 0 10 6" refX="10" refY="3" markerWidth="10" markerHeight="6" orient="auto-start-reverse">
      <path d="M0,0 L10,3 L0,6 Z" fill="#22c55e"/>
    </marker>
    <marker id="arrow-red" viewBox="0 0 10 6" refX="10" refY="3" markerWidth="10" markerHeight="6" orient="auto-start-reverse">
      <path d="M0,0 L10,3 L0,6 Z" fill="#ef4444"/>
    </marker>
    <marker id="arrow-cyan" viewBox="0 0 10 6" refX="10" refY="3" markerWidth="10" markerHeight="6" orient="auto-start-reverse">
      <path d="M0,0 L10,3 L0,6 Z" fill="#06b6d4"/>
    </marker>
    <marker id="arrow-orange" viewBox="0 0 10 6" refX="10" refY="3" markerWidth="10" markerHeight="6" orient="auto-start-reverse">
      <path d="M0,0 L10,3 L0,6 Z" fill="#f97316"/>
    </marker>
    <linearGradient id="bgGrad" x1="0%" y1="0%" x2="100%" y2="100%">
      <stop offset="0%" style="stop-color:#f0f4f8"/>
      <stop offset="100%" style="stop-color:#e2e8f0"/>
    </linearGradient>
  </defs>

  <!-- Background -->
  <rect width="1400" height="1120" rx="16" fill="url(#bgGrad)"/>

  <!-- Title -->
  <text x="700" y="44" text-anchor="middle" font-size="26" font-weight="700" fill="#1e293b">Dev Team Orchestrator</text>
  <text x="700" y="68" text-anchor="middle" font-size="13" fill="#64748b">AI-Powered Pipeline: Intent Parser / Architect / Executor / Reviewer / K8s Verify / Deploy</text>

  <!-- ==================== PHASE 1: DISCORD INPUT ==================== -->
  <rect x="30" y="94" width="300" height="260" rx="12" fill="#fef3c7" stroke="#f59e0b" stroke-width="1.5" filter="url(#shadow)"/>
  <text x="180" y="118" text-anchor="middle" font-size="11" font-weight="700" fill="#92400e" letter-spacing="1">PHASE 1: DISCORD INPUT</text>

  <rect x="60" y="136" width="240" height="48" rx="8" fill="#5865f2" filter="url(#shadow)"/>
  <text x="180" y="160" text-anchor="middle" font-size="14" font-weight="600" fill="#fff">Discord Webhook</text>
  <text x="180" y="176" text-anchor="middle" font-size="9" fill="#c4c9f2">$dev or $auto command</text>

  <line x1="180" y1="184" x2="180" y2="200" stroke="#f59e0b" stroke-width="1.5"/>

  <rect x="60" y="202" width="240" height="44" rx="8" fill="#6366f1" filter="url(#shadow)"/>
  <text x="180" y="222" text-anchor="middle" font-size="12" font-weight="600" fill="#fff">AI Intent Parser</text>
  <text x="180" y="238" text-anchor="middle" font-size="9" fill="#c7d2fe">LLM extracts task + repo</text>

  <line x1="180" y1="246" x2="180" y2="260" stroke="#f59e0b" stroke-width="1.5"/>

  <rect x="60" y="262" width="240" height="36" rx="8" fill="#fff" stroke="#e2e8f0" stroke-width="1"/>
  <text x="180" y="284" text-anchor="middle" font-size="11" fill="#475569">Parse Command</text>

  <line x1="180" y1="298" x2="180" y2="320" stroke="#f59e0b" stroke-width="1.5"/>
  <rect x="80" y="322" width="200" height="28" rx="6" fill="#5865f2" opacity="0.7"/>
  <text x="180" y="340" text-anchor="middle" font-size="10" fill="#fff">Ack in Discord</text>

  <!-- ==================== PHASE 2: ANALYSIS + ARCHITECT ==================== -->
  <rect x="370" y="94" width="340" height="310" rx="12" fill="#dbeafe" stroke="#3b82f6" stroke-width="1.5" filter="url(#shadow)"/>
  <text x="540" y="118" text-anchor="middle" font-size="11" font-weight="700" fill="#1e40af" letter-spacing="1">PHASE 2: ANALYSIS + ARCHITECT</text>

  <rect x="400" y="138" width="280" height="44" rx="8" fill="#06b6d4" filter="url(#shadow)"/>
  <text x="540" y="158" text-anchor="middle" font-size="12" font-weight="600" fill="#fff">Codebase Analysis (K8s Job)</text>
  <text x="540" y="174" text-anchor="middle" font-size="9" fill="#cffafe">Language, framework, deps, docker-compose</text>

  <line x1="540" y1="182" x2="540" y2="200" stroke="#3b82f6" stroke-width="1.5"/>

  <rect x="400" y="202" width="130" height="40" rx="8" fill="#fff" stroke="#e2e8f0" stroke-width="1" filter="url(#shadow)"/>
  <text x="465" y="220" text-anchor="middle" font-size="11" fill="#475569">Fetch Repo Tree</text>
  <text x="465" y="234" text-anchor="middle" font-size="8" fill="#94a3b8">GitHub API</text>

  <rect x="550" y="202" width="130" height="40" rx="8" fill="#fff" stroke="#e2e8f0" stroke-width="1" filter="url(#shadow)"/>
  <text x="615" y="220" text-anchor="middle" font-size="11" fill="#475569">Enrich Context</text>
  <text x="615" y="234" text-anchor="middle" font-size="8" fill="#94a3b8">Tree + analysis</text>

  <line x1="530" y1="222" x2="548" y2="222" stroke="#64748b" stroke-width="1.2" marker-end="url(#arrow)"/>

  <rect x="410" y="260" width="260" height="56" rx="10" fill="#6366f1" filter="url(#shadow)"/>
  <text x="540" y="284" text-anchor="middle" font-size="15" font-weight="700" fill="#fff">Architect Agent</text>
  <text x="540" y="302" text-anchor="middle" font-size="9" fill="#c7d2fe">Plans steps, picks images, decides deployment</text>

  <rect x="420" y="330" width="240" height="36" rx="8" fill="#fff" stroke="#e2e8f0" stroke-width="1"/>
  <text x="540" y="352" text-anchor="middle" font-size="11" fill="#475569">Parse Plan / Split Steps</text>

  <rect x="420" y="374" width="240" height="24" rx="6" fill="#e0e7ff" stroke="#a5b4fc" stroke-width="1"/>
  <text x="540" y="390" text-anchor="middle" font-size="9" fill="#4338ca">Create Feature Branch (GitHub API)</text>

  <line x1="330" y1="240" x2="368" y2="220" stroke="#64748b" stroke-width="2" marker-end="url(#arrow)"/>

  <!-- ==================== PHASE 3: EXECUTOR + REVIEWER LOOP ==================== -->
  <rect x="750" y="94" width="620" height="520" rx="12" fill="#f0fdf4" stroke="#22c55e" stroke-width="1.5" filter="url(#shadow)"/>
  <text x="1060" y="118" text-anchor="middle" font-size="11" font-weight="700" fill="#166534" letter-spacing="1">PHASE 3: DEVELOPMENT LOOP (EXECUTOR / REVIEWER)</text>

  <rect x="780" y="140" width="160" height="40" rx="8" fill="#fff" stroke="#d1d5db" stroke-width="1" filter="url(#shadow)"/>
  <text x="860" y="165" text-anchor="middle" font-size="12" fill="#475569">Loop Steps (per file)</text>

  <rect x="780" y="200" width="160" height="40" rx="8" fill="#fff" stroke="#d1d5db" stroke-width="1"/>
  <text x="860" y="224" text-anchor="middle" font-size="11" fill="#475569">Fetch Existing File</text>

  <rect x="780" y="258" width="160" height="40" rx="8" fill="#fff" stroke="#d1d5db" stroke-width="1"/>
  <text x="860" y="282" text-anchor="middle" font-size="11" fill="#475569">Prep for Executor</text>

  <rect x="770" y="320" width="180" height="56" rx="10" fill="#2563eb" filter="url(#shadow)"/>
  <text x="860" y="346" text-anchor="middle" font-size="14" font-weight="700" fill="#fff">Executor Agent</text>
  <text x="860" y="364" text-anchor="middle" font-size="9" fill="#bfdbfe">Writes the code</text>

  <rect x="870" y="400" width="170" height="36" rx="8" fill="#fff" stroke="#d1d5db" stroke-width="1"/>
  <text x="955" y="422" text-anchor="middle" font-size="11" fill="#475569">Normalize Code</text>

  <line x1="860" y1="376" x2="870" y2="400" stroke="#64748b" stroke-width="1.2" marker-end="url(#arrow)"/>

  <rect x="1080" y="400" width="160" height="36" rx="8" fill="#e0e7ff" stroke="#a5b4fc" stroke-width="1"/>
  <text x="1160" y="422" text-anchor="middle" font-size="11" fill="#4338ca">Commit to GitHub</text>

  <line x1="1040" y1="418" x2="1078" y2="418" stroke="#64748b" stroke-width="1.2" marker-end="url(#arrow)"/>

  <rect x="1120" y="310" width="220" height="56" rx="10" fill="#7c3aed" filter="url(#shadow)"/>
  <text x="1230" y="336" text-anchor="middle" font-size="14" font-weight="700" fill="#fff">Reviewer Agent</text>
  <text x="1230" y="354" text-anchor="middle" font-size="9" fill="#ddd6fe">PASS / FAIL verdict</text>

  <line x1="1240" y1="400" x2="1240" y2="368" stroke="#64748b" stroke-width="1.2" marker-end="url(#arrow)"/>

  <rect x="1140" y="248" width="180" height="36" rx="8" fill="#fff" stroke="#d1d5db" stroke-width="1"/>
  <text x="1230" y="271" text-anchor="middle" font-size="11" fill="#475569">Parse Review</text>

  <line x1="1230" y1="310" x2="1230" y2="286" stroke="#64748b" stroke-width="1.2" marker-end="url(#arrow)"/>

  <!-- Retry diamond -->
  <polygon points="1230,188 1290,218 1230,248 1170,218" fill="#fef9c3" stroke="#eab308" stroke-width="1.5"/>
  <text x="1230" y="222" text-anchor="middle" font-size="9" font-weight="600" fill="#854d0e">Retry?</text>

  <!-- PASS -->
  <rect x="1098" y="140" width="120" height="40" rx="8" fill="#dcfce7" stroke="#22c55e" stroke-width="1.5"/>
  <text x="1158" y="158" text-anchor="middle" font-size="10" font-weight="600" fill="#166534">PASS</text>
  <text x="1158" y="172" text-anchor="middle" font-size="9" fill="#166534">Step Done</text>

  <line x1="1170" y1="218" x2="1098" y2="180" stroke="#22c55e" stroke-width="1.5" marker-end="url(#arrow-green)"/>
  <path d="M1098,160 L780,160" stroke="#22c55e" stroke-width="1.5" stroke-dasharray="6,3" marker-end="url(#arrow-green)" fill="none"/>

  <!-- FAIL -->
  <rect x="1260" y="140" width="100" height="40" rx="8" fill="#fee2e2" stroke="#ef4444" stroke-width="1.5"/>
  <text x="1310" y="158" text-anchor="middle" font-size="10" font-weight="600" fill="#991b1b">FAIL</text>
  <text x="1310" y="172" text-anchor="middle" font-size="9" fill="#991b1b">Retry feedback</text>

  <line x1="1290" y1="218" x2="1340" y2="180" stroke="#ef4444" stroke-width="1.5" marker-end="url(#arrow-red)"/>
  <path d="M1310,140 C1310,100 860,90 860,138" stroke="#ef4444" stroke-width="1.5" stroke-dasharray="6,3" marker-end="url(#arrow-red)" fill="none"/>
  <text x="1080" y="88" text-anchor="middle" font-size="9" font-weight="600" fill="#991b1b">$auto mode: up to 3 retries</text>

  <line x1="860" y1="180" x2="860" y2="198" stroke="#64748b" stroke-width="1.2" marker-end="url(#arrow)"/>
  <line x1="860" y1="240" x2="860" y2="256" stroke="#64748b" stroke-width="1.2" marker-end="url(#arrow)"/>
  <line x1="860" y1="298" x2="860" y2="318" stroke="#64748b" stroke-width="1.2" marker-end="url(#arrow)"/>
  <line x1="710" y1="340" x2="748" y2="340" stroke="#64748b" stroke-width="2" marker-end="url(#arrow)"/>

  <!-- Arrow Phase 3 to Phase 4 -->
  <path d="M860,610 L860,650 L490,650 L490,686" stroke="#64748b" stroke-width="2" stroke-dasharray="6,3" marker-end="url(#arrow)" fill="none"/>
  <text x="675" y="644" text-anchor="middle" font-size="9" fill="#64748b">All steps complete</text>

  <!-- ==================== PHASE 4: VERIFICATION (K8s DinD) ==================== -->
  <rect x="370" y="640" width="390" height="220" rx="12" fill="#ecfeff" stroke="#06b6d4" stroke-width="1.5" filter="url(#shadow)"/>
  <text x="565" y="664" text-anchor="middle" font-size="11" font-weight="700" fill="#155e75" letter-spacing="1">PHASE 4: VERIFY (K8s DOCKER-IN-DOCKER)</text>

  <rect x="400" y="684" width="160" height="40" rx="8" fill="#fff" stroke="#d1d5db" stroke-width="1" filter="url(#shadow)"/>
  <text x="480" y="708" text-anchor="middle" font-size="11" fill="#475569">Summarize Results</text>

  <rect x="400" y="740" width="140" height="50" rx="8" fill="#06b6d4" filter="url(#shadow)"/>
  <text x="470" y="762" text-anchor="middle" font-size="11" font-weight="600" fill="#fff">Build K8s Job</text>
  <text x="470" y="780" text-anchor="middle" font-size="8" fill="#cffafe">DinD + compose</text>

  <line x1="480" y1="724" x2="470" y2="738" stroke="#06b6d4" stroke-width="1.5"/>

  <rect x="560" y="740" width="100" height="50" rx="8" fill="#fff" stroke="#06b6d4" stroke-width="1"/>
  <text x="610" y="762" text-anchor="middle" font-size="10" fill="#475569">Poll + Read</text>
  <text x="610" y="778" text-anchor="middle" font-size="8" fill="#94a3b8">Logs for PASS</text>

  <line x1="540" y1="765" x2="558" y2="765" stroke="#64748b" stroke-width="1.2" marker-end="url(#arrow)"/>

  <rect x="680" y="740" width="60" height="50" rx="8" fill="#dcfce7" stroke="#22c55e" stroke-width="1"/>
  <text x="710" y="762" text-anchor="middle" font-size="10" fill="#166534">Health</text>
  <text x="710" y="778" text-anchor="middle" font-size="8" fill="#166534">Check</text>

  <line x1="660" y1="765" x2="678" y2="765" stroke="#64748b" stroke-width="1.2" marker-end="url(#arrow)"/>

  <rect x="400" y="808" width="340" height="36" rx="8" fill="#f0f9ff" stroke="#06b6d4" stroke-width="1"/>
  <text x="570" y="830" text-anchor="middle" font-size="10" fill="#155e75">docker compose build + start + curl health endpoint</text>

  <!-- ==================== PHASE 5: DEPLOY + RESULTS ==================== -->
  <rect x="790" y="640" width="580" height="220" rx="12" fill="#fce7f3" stroke="#ec4899" stroke-width="1.5" filter="url(#shadow)"/>
  <text x="1080" y="664" text-anchor="middle" font-size="11" font-weight="700" fill="#9d174d" letter-spacing="1">PHASE 5: DEPLOY + RESULTS</text>

  <!-- Deploy Decision -->
  <polygon points="860,704 920,730 860,756 800,730" fill="#fef9c3" stroke="#eab308" stroke-width="1.5"/>
  <text x="860" y="727" text-anchor="middle" font-size="8" font-weight="600" fill="#854d0e">Deploy</text>
  <text x="860" y="738" text-anchor="middle" font-size="8" font-weight="600" fill="#854d0e">needed?</text>

  <line x1="740" y1="765" x2="800" y2="730" stroke="#64748b" stroke-width="1.2" marker-end="url(#arrow)"/>

  <!-- YES: Deploy -->
  <rect x="940" y="686" width="160" height="44" rx="8" fill="#f97316" filter="url(#shadow)"/>
  <text x="1020" y="706" text-anchor="middle" font-size="12" font-weight="600" fill="#fff">Deploy Server</text>
  <text x="1020" y="722" text-anchor="middle" font-size="9" fill="#fed7aa">K8s LoadBalancer Service</text>
  <text x="920" y="696" font-size="8" font-weight="600" fill="#166534">YES</text>

  <line x1="920" y1="730" x2="938" y2="708" stroke="#f97316" stroke-width="1.5" marker-end="url(#arrow-orange)"/>

  <!-- Browser -->
  <rect x="1140" y="690" width="120" height="36" rx="8" fill="#7c2d12" stroke="#f97316" stroke-width="1.5"/>
  <text x="1200" y="712" text-anchor="middle" font-size="11" font-weight="600" fill="#fed7aa">Browser</text>
  <text x="1200" y="722" text-anchor="middle" font-size="8" fill="#f97316">localhost:port</text>

  <line x1="1100" y1="708" x2="1138" y2="708" stroke="#f97316" stroke-width="1.5" marker-end="url(#arrow-orange)"/>

  <!-- Create PR -->
  <rect x="940" y="750" width="160" height="44" rx="8" fill="#22c55e" filter="url(#shadow)"/>
  <text x="1020" y="770" text-anchor="middle" font-size="12" font-weight="600" fill="#fff">Create PR</text>
  <text x="1020" y="786" text-anchor="middle" font-size="9" fill="#dcfce7">GitHub API</text>

  <line x1="860" y1="756" x2="938" y2="772" stroke="#64748b" stroke-width="1.5" marker-end="url(#arrow)"/>
  <line x1="1020" y1="730" x2="1020" y2="748" stroke="#64748b" stroke-width="1"/>

  <!-- FAIL path -->
  <rect x="940" y="810" width="160" height="36" rx="8" fill="#fee2e2" stroke="#ef4444" stroke-width="1"/>
  <text x="1020" y="832" text-anchor="middle" font-size="10" font-weight="600" fill="#991b1b">Retry or Fail</text>

  <!-- Retry back -->
  <path d="M1020,846 C1020,870 860,880 860,620 C860,615 860,612 860,610" stroke="#ef4444" stroke-width="1.5" stroke-dasharray="6,3" marker-end="url(#arrow-red)" fill="none"/>
  <text x="960" y="870" font-size="8" font-weight="600" fill="#991b1b">$auto retry w/ errors</text>

  <!-- Post to Discord -->
  <rect x="1160" y="770" width="100" height="70" rx="10" fill="#5865f2" filter="url(#shadow)"/>
  <text x="1210" y="800" text-anchor="middle" font-size="10" font-weight="600" fill="#fff">Report to</text>
  <text x="1210" y="816" text-anchor="middle" font-size="10" font-weight="600" fill="#fff">Discord</text>
  <text x="1210" y="832" text-anchor="middle" font-size="8" fill="#c4c9f2">URL + PR + Status</text>

  <line x1="1100" y1="772" x2="1158" y2="800" stroke="#64748b" stroke-width="1.2" marker-end="url(#arrow)"/>

  <!-- ==================== LEGENDS ==================== -->
  <rect x="30" y="420" width="300" height="90" rx="10" fill="#fff" stroke="#e2e8f0" stroke-width="1" filter="url(#shadow)"/>
  <text x="180" y="444" text-anchor="middle" font-size="12" font-weight="700" fill="#1e293b">Discord Commands</text>

  <rect x="50" y="456" width="260" height="24" rx="6" fill="#dbeafe"/>
  <text x="180" y="473" text-anchor="middle" font-size="10" font-weight="600" fill="#1e40af">$dev &lt;task&gt; in owner/repo &#x2014; single pass</text>

  <rect x="50" y="486" width="260" height="24" rx="6" fill="#fee2e2"/>
  <text x="180" y="503" text-anchor="middle" font-size="10" font-weight="600" fill="#991b1b">$auto &lt;task&gt; in owner/repo &#x2014; 3 retries</text>

  <rect x="30" y="530" width="300" height="130" rx="10" fill="#fff" stroke="#e2e8f0" stroke-width="1" filter="url(#shadow)"/>
  <text x="180" y="554" text-anchor="middle" font-size="12" font-weight="700" fill="#1e293b">Key Features</text>

  <circle cx="55" cy="576" r="6" fill="#6366f1"/>
  <text x="68" y="580" font-size="10" fill="#475569">AI Intent Parser (natural language)</text>

  <circle cx="55" cy="598" r="6" fill="#2563eb"/>
  <text x="68" y="602" font-size="10" fill="#475569">Smart Architect (scaffolds full projects)</text>

  <circle cx="55" cy="620" r="6" fill="#06b6d4"/>
  <text x="68" y="624" font-size="10" fill="#475569">Docker-in-Docker verification on K8s</text>

  <circle cx="55" cy="642" r="6" fill="#f97316"/>
  <text x="68" y="646" font-size="10" fill="#475569">Auto-deploy to localhost (LoadBalancer)</text>

  <rect x="30" y="680" width="300" height="52" rx="10" fill="#1e293b" filter="url(#shadow)"/>
  <text x="180" y="704" text-anchor="middle" font-size="11" font-weight="700" fill="#f8fafc">AI AGENT ORCHESTRATION</text>
  <text x="180" y="722" text-anchor="middle" font-size="9" fill="#94a3b8">Pluggable LLM &#x2022; n8n workflow &#x2022; K8s &#x2022; GitHub</text>

  <!-- ==================== PIPELINE SUMMARY ==================== -->
  <rect x="30" y="900" width="1340" height="80" rx="12" fill="#fff" stroke="#e2e8f0" stroke-width="1" filter="url(#shadow)"/>
  <text x="700" y="925" text-anchor="middle" font-size="13" font-weight="700" fill="#1e293b">Full Pipeline</text>

  <rect x="50" y="940" width="140" height="22" rx="4" fill="#fef3c7" stroke="#f59e0b" stroke-width="1"/>
  <text x="120" y="955" text-anchor="middle" font-size="8" font-weight="600" fill="#92400e">1. Discord + Intent AI</text>

  <line x1="192" y1="951" x2="216" y2="951" stroke="#64748b" stroke-width="1.5" marker-end="url(#arrow)"/>

  <rect x="218" y="940" width="160" height="22" rx="4" fill="#dbeafe" stroke="#3b82f6" stroke-width="1"/>
  <text x="298" y="955" text-anchor="middle" font-size="8" font-weight="600" fill="#1e40af">2. Analysis + Architect</text>

  <line x1="380" y1="951" x2="404" y2="951" stroke="#64748b" stroke-width="1.5" marker-end="url(#arrow)"/>

  <rect x="406" y="940" width="220" height="22" rx="4" fill="#f0fdf4" stroke="#22c55e" stroke-width="1"/>
  <text x="516" y="955" text-anchor="middle" font-size="8" font-weight="600" fill="#166534">3. Executor / Reviewer Loop</text>

  <line x1="628" y1="951" x2="652" y2="951" stroke="#64748b" stroke-width="1.5" marker-end="url(#arrow)"/>

  <rect x="654" y="940" width="200" height="22" rx="4" fill="#ecfeff" stroke="#06b6d4" stroke-width="1"/>
  <text x="754" y="955" text-anchor="middle" font-size="8" font-weight="600" fill="#155e75">4. K8s Verify (DinD build)</text>

  <line x1="856" y1="951" x2="880" y2="951" stroke="#64748b" stroke-width="1.5" marker-end="url(#arrow)"/>

  <rect x="882" y="940" width="140" height="22" rx="4" fill="#fff7ed" stroke="#f97316" stroke-width="1"/>
  <text x="952" y="955" text-anchor="middle" font-size="8" font-weight="600" fill="#9a3412">5. Deploy Server</text>

  <line x1="1024" y1="951" x2="1048" y2="951" stroke="#64748b" stroke-width="1.5" marker-end="url(#arrow)"/>

  <rect x="1050" y="940" width="160" height="22" rx="4" fill="#fce7f3" stroke="#ec4899" stroke-width="1"/>
  <text x="1130" y="955" text-anchor="middle" font-size="8" font-weight="600" fill="#9d174d">6. PR + Discord Report</text>

  <!-- Retry arrow underneath -->
  <path d="M754,964 C754,985 516,985 516,964" stroke="#ef4444" stroke-width="1.2" stroke-dasharray="4,3" marker-end="url(#arrow-red)" fill="none"/>
  <text x="635" y="990" text-anchor="middle" font-size="8" fill="#991b1b">$auto: retry on review or verify failure (max 3)</text>
</svg>